<svg id="Layer_1" data-name="Layer 1" xmlns="http://www.w3.org/2000/svg" viewBox="0 0 158.87 156.88"><defs><style>.cls-1{fill:#eaeeef;}.cls-2{fill:#013e5b;}.cls-3{fill:none;stroke:#013e5b;stroke-miterlimit:10;stroke-width:3px;}.cls-4{fill:#d14a5b;}</style></defs><title>buisness</title><rect class="cls-1" x="6.92" y="37.86" width="143.13" height="104.15" rx="7.14" ry="7.14" transform="translate(0.1 -0.09) rotate(0.06)"/><path class="cls-2" d="M143.34,144.07h-.48L14,143.94a9.14,9.14,0,0,1-9.13-9.15L5,44.91a9.14,9.14,0,0,1,9.15-9.13L143,35.93a9.14,9.14,0,0,1,9.13,9.15L152,135A9.15,9.15,0,0,1,143.34,144.07Zm-.48-4a5.14,5.14,0,0,0,5.14-5.13l.1-89.88A5.14,5.14,0,0,0,143,39.93L14.11,39.78A5.14,5.14,0,0,0,9,44.92l-.1,89.88A5.14,5.14,0,0,0,14,139.94l128.86.14Z"/><path class="cls-3" d="M62.95,17.63H91a1.62,1.62,0,0,1,1.62,1.62V37a0,0,0,0,1,0,0H61.33a0,0,0,0,1,0,0V19.25A1.62,1.62,0,0,1,62.95,17.63Z" transform="translate(0.03 -0.09) rotate(0.06)"/><path class="cls-2" d="M32.31,143.45a7,7,0,0,0,13.89,0Z"/><path class="cls-2" d="M106.65,143.54a7,7,0,0,0,13.89,0Z"/><polygon class="cls-2" points="47.2 84.91 47.14 139.9 31.13 139.88 31.19 84.89 28.09 84.88 28.11 72.56 31.2 72.56 31.24 39.88 47.26 39.9 47.22 72.58 51.38 72.59 51.42 35.75 27.08 35.72 26.96 144.03 51.3 144.06 51.36 84.91 47.2 84.91"/><polygon class="cls-2" points="105.66 72.08 105.7 39.97 121.72 39.98 121.68 72.09 125.84 72.1 125.88 35.83 101.54 35.8 101.5 72.07 105.66 72.08"/><polygon class="cls-2" points="121.66 86.66 121.6 139.98 105.58 139.96 105.64 86.64 101.49 86.64 101.42 144.11 125.76 144.14 125.82 86.67 121.66 86.66"/><path class="cls-2" d="M40.18,109.15l-.64,0h-.83a12,12,0,0,1-11.94-12V84.41l24.74,0V97.22a12,12,0,0,1-11.33,11.93ZM29.78,87.41V97.2a9,9,0,0,0,8.95,9h.83a9,9,0,0,0,9-8.95V87.44Z"/><circle class="cls-4" cx="39.67" cy="78.84" r="3.43" transform="translate(-39.21 118.43) rotate(-89.94)"/><path class="cls-4" d="M25,69.86l0,17.94,30.13,0,0-17.94Zm25,13.87-20.36,0V73.8l20.36,0Z"/><path class="cls-2" d="M114.68,109.66l-.64,0h-.83a12,12,0,0,1-11.94-12V84.92l24.74,0V97.73a12,12,0,0,1-11.33,11.93Zm-10.4-21.73v9.78a9,9,0,0,0,8.95,9H114a9,9,0,0,0,9-8.95V87.95Z"/><path class="cls-4" d="M98.61,70.59l0,17.94,30.13,0,0-17.94Zm25,13.87-20.36,0v-9.9l20.36,0Z"/><circle class="cls-4" cx="113.3" cy="79.58" r="3.43" transform="translate(33.59 192.79) rotate(-89.94)"/><path class="cls-1" d="M96.63,6.76l-39.31,0a6.37,6.37,0,0,0-6.38,6.37l0,23.88L103,37l0-23.88A6.37,6.37,0,0,0,96.63,6.76ZM92.09,36.24l-30.78,0,0-19.07,30.78,0Z"/><path class="cls-2" d="M105,39,48.92,39l0-25.88a8.37,8.37,0,0,1,8.38-8.36l39.31,0A8.37,8.37,0,0,1,105,13.15ZM94.09,35H101l0-21.88a4.37,4.37,0,0,0-4.37-4.38l-39.31,0a4.38,4.38,0,0,0-4.38,4.37l0,21.88h6.4l0-19.85,34.78,0ZM63.32,34.2l26.78,0,0-15.07-26.78,0Z"/></svg>