<svg id="Layer_1" data-name="Layer 1" xmlns="http://www.w3.org/2000/svg" viewBox="0 0 30 30"><defs><style>.cls-1{fill:#d14a5b;}.cls-2{fill:#013e5b;}</style></defs><title>calendar_icon</title><rect class="cls-1" x="6.23" y="1.82" width="1.54" height="3.9" rx="0.77" ry="0.77"/><rect class="cls-1" x="21.54" y="1.91" width="1.54" height="3.9" rx="0.77" ry="0.77"/><path class="cls-2" d="M27,2H23.95V3.41H27a.81.81,0,0,1,.81.81V25.06a.81.81,0,0,1-.81.81H3a.81.81,0,0,1-.81-.81V4.22A.81.81,0,0,1,3,3.41H5.36V2H3A2.26,2.26,0,0,0,.71,4.22V25.06A2.26,2.26,0,0,0,3,27.32H27a2.26,2.26,0,0,0,2.26-2.26V4.22A2.26,2.26,0,0,0,27,2Z"/><rect class="cls-2" x="8.69" y="1.96" width="11.93" height="1.45"/><path class="cls-2" d="M8.06,2V5.1a1.08,1.08,0,1,1-2.17,0V2H4.73V5.1a2.25,2.25,0,1,0,4.49,0V2Z"/><path class="cls-2" d="M23.4,2V5.1a1.08,1.08,0,1,1-2.17,0V2H20.07V5.1a2.25,2.25,0,1,0,4.49,0V2Z"/><path class="cls-2" d="M25.58,24.94H4.25a1,1,0,0,1-1-1V8.81a1,1,0,0,1,1-1H25.58a1,1,0,0,1,1,1V23.92A1,1,0,0,1,25.58,24.94ZM4.25,8.66a.14.14,0,0,0-.14.14V23.92a.14.14,0,0,0,.14.14H25.58a.14.14,0,0,0,.14-.14V8.81a.14.14,0,0,0-.14-.14Z"/><path class="cls-2" d="M18.46,13.72h-2.7a.89.89,0,0,1-.89-.89V11a.89.89,0,0,1,.89-.89h2.7a.89.89,0,0,1,.89.89v1.8A.89.89,0,0,1,18.46,13.72ZM15.76,11l0,1.81,2.72,0a0,0,0,0,0,0,0V11Z"/><path class="cls-2" d="M23.75,13.72H21a.89.89,0,0,1-.89-.89V11a.89.89,0,0,1,.89-.89h2.7a.89.89,0,0,1,.89.89v1.8A.89.89,0,0,1,23.75,13.72ZM21,11l0,1.81,2.72,0a0,0,0,0,0,0,0V11Z"/><path class="cls-1" d="M18.69,18.2H16a.89.89,0,0,1-.89-.89v-1.8a.89.89,0,0,1,.89-.89h2.7a.89.89,0,0,1,.89.89v1.8A.89.89,0,0,1,18.69,18.2ZM16,15.49l0,1.81,2.72,0a0,0,0,0,0,0,0v-1.8Z"/><path class="cls-2" d="M23.75,18.2H21a.89.89,0,0,1-.89-.89v-1.8a.89.89,0,0,1,.89-.89h2.7a.89.89,0,0,1,.89.89v1.8A.89.89,0,0,1,23.75,18.2ZM21,15.49l0,1.81,2.72,0a0,0,0,0,0,0,0v-1.8Z"/><path class="cls-2" d="M18.75,22.66H16a.89.89,0,0,1-.89-.89V20a.89.89,0,0,1,.89-.89h2.7a.89.89,0,0,1,.89.89v1.8A.89.89,0,0,1,18.75,22.66ZM16,20l0,1.81,2.72,0a0,0,0,0,0,0,0V20Z"/><path class="cls-2" d="M24,22.66h-2.7a.89.89,0,0,1-.89-.89V20a.89.89,0,0,1,.89-.89H24a.89.89,0,0,1,.89.89v1.8A.89.89,0,0,1,24,22.66ZM21.34,20l0,1.81,2.72,0a0,0,0,0,0,0,0V20Z"/><path class="cls-2" d="M8.38,18.2H5.68a.89.89,0,0,1-.89-.89v-1.8a.89.89,0,0,1,.89-.89h2.7a.89.89,0,0,1,.89.89v1.8A.89.89,0,0,1,8.38,18.2Zm-2.7-2.7,0,1.81,2.72,0a0,0,0,0,0,0,0v-1.8Z"/><path class="cls-2" d="M13.44,18.2h-2.7a.89.89,0,0,1-.89-.89v-1.8a.89.89,0,0,1,.89-.89h2.7a.89.89,0,0,1,.89.89v1.8A.89.89,0,0,1,13.44,18.2Zm-2.7-2.7,0,1.81,2.72,0a0,0,0,0,0,0,0v-1.8Z"/><path class="cls-2" d="M8.53,22.66H5.82a.89.89,0,0,1-.89-.89V20a.89.89,0,0,1,.89-.89h2.7a.89.89,0,0,1,.89.89v1.8A.89.89,0,0,1,8.53,22.66ZM5.82,20l0,1.81,2.72,0a0,0,0,0,0,0,0V20Z"/><path class="cls-2" d="M13.59,22.66h-2.7a.89.89,0,0,1-.89-.89V20a.89.89,0,0,1,.89-.89h2.7a.89.89,0,0,1,.89.89v1.8A.89.89,0,0,1,13.59,22.66ZM10.88,20l0,1.81,2.72,0a0,0,0,0,0,0,0V20Z"/></svg>