<svg id="Layer_1" data-name="Layer 1" xmlns="http://www.w3.org/2000/svg" viewBox="0 0 30 30"><defs><style>.cls-1{fill:#013e5b;}.cls-2{fill:#d14a5b;}</style></defs><title>car_icon</title><path class="cls-1" d="M26.5,9.31H14a.35.35,0,0,1,0-.69H26.5a.35.35,0,1,1,0,.69Z"/><rect class="cls-1" x="8.45" y="19.93" width="13.61" height="0.69"/><polygon class="cls-1" points="27.09 13.72 9.06 13.72 9.45 13.03 27.09 13.03 27.09 13.72"/><rect class="cls-1" x="18.96" y="8.96" width="0.69" height="4.56"/><path class="cls-1" d="M5.29,23.39a2.81,2.81,0,1,1,2.81-2.81A2.81,2.81,0,0,1,5.29,23.39Zm0-4.92A2.11,2.11,0,1,0,7.4,20.58,2.11,2.11,0,0,0,5.29,18.47Z"/><path class="cls-1" d="M25.23,23.39A2.81,2.81,0,1,1,28,20.58,2.81,2.81,0,0,1,25.23,23.39Zm0-4.92a2.11,2.11,0,1,0,2.11,2.11A2.11,2.11,0,0,0,25.23,18.47Z"/><rect class="cls-2" x="1.45" y="16.55" width="27.52" height="0.92"/><rect class="cls-1" x="9.77" y="14.25" width="1.79" height="0.73" rx="0.35" ry="0.35"/><path class="cls-2" d="M5.24,22.19a1.64,1.64,0,1,1,1.64-1.64A1.64,1.64,0,0,1,5.24,22.19Zm0-2.82a1.18,1.18,0,1,0,1.18,1.18A1.18,1.18,0,0,0,5.24,19.37Z"/><path class="cls-2" d="M25.23,22.19a1.64,1.64,0,1,1,1.64-1.64A1.64,1.64,0,0,1,25.23,22.19Zm0-2.82a1.18,1.18,0,1,0,1.18,1.18A1.18,1.18,0,0,0,25.23,19.37Z"/><path class="cls-1" d="M29.44,20.62H28.26v-.69h.49V14.79a1.09,1.09,0,0,0-1.09-1.09h-.89l0-.32a6.78,6.78,0,0,0-2.22-3.93.55.55,0,0,0-.38-.15H13.59a.76.76,0,0,0-.6.29l-2.82,3.54A1.55,1.55,0,0,1,9,13.72h-2A5.68,5.68,0,0,0,1.25,19.4v.52h1v.69H.56V19.4A6.38,6.38,0,0,1,6.94,13H9a.86.86,0,0,0,.68-.33l2.82-3.54a1.45,1.45,0,0,1,1.14-.55H24.14A1.24,1.24,0,0,1,25,9,7.75,7.75,0,0,1,27.4,13h.26a1.78,1.78,0,0,1,1.78,1.78Z"/></svg>