<svg id="Layer_1" data-name="Layer 1" xmlns="http://www.w3.org/2000/svg" viewBox="0 0 30 30"><defs><style>.cls-1{fill:#013e5b;}.cls-2{fill:#d14a5b;}</style></defs><title>cart_icon</title><path class="cls-1" d="M26.37.49a1.35,1.35,0,0,0-1.19.71l-3.4,6.29H3.16A1.22,1.22,0,0,0,2,9l2.66,13.2H22.2c.25.16,1,.78,1.06,2.59H1.14a.54.54,0,1,0,0,1.07H5.92a2.28,2.28,0,1,0,3.57,0H16a2.28,2.28,0,1,0,3.57,0H24.3l0-.51c.11-2.51-.9-3.59-1.45-4V7.74l3.26-6a.27.27,0,0,1,.24-.14h3V.49ZM7.7,28.43a1.21,1.21,0,1,1,1.21-1.21A1.21,1.21,0,0,1,7.7,28.43Zm10.05,0A1.21,1.21,0,1,1,19,27.23,1.21,1.21,0,0,1,17.75,28.43ZM10.17,17.31V13h6.21v4.31Zm6.21.94v2.83H10.17V18.25ZM3.88,13H9.23v4.31H4.75Zm17.92-.94H17.32V8.56H21.8Zm-5.42,0H10.17V8.56h6.21Zm.94.94H21.8v4.31H17.32ZM3,8.62a.14.14,0,0,1,.11-.05H9.23v3.49H3.69L3,8.74A.14.14,0,0,1,3,8.62Zm1.89,9.63H9.23v2.83H5.51Zm12.38,2.83V18.25H21.8v2.83Z"/><circle class="cls-2" cx="7.7" cy="27.23" r="0.7"/><circle class="cls-2" cx="17.75" cy="27.23" r="0.7"/></svg>