<svg id="Layer_1" data-name="Layer 1" xmlns="http://www.w3.org/2000/svg" viewBox="0 0 30 30"><defs><style>.cls-1{fill:#013e5b;}.cls-2{fill:#d14a5b;}</style></defs><title>challenges_icon</title><path class="cls-1" d="M15,29.66A14.66,14.66,0,1,1,29.66,15,14.68,14.68,0,0,1,15,29.66ZM15,2.34A12.66,12.66,0,1,0,27.66,15,12.67,12.67,0,0,0,15,2.34Z"/><path class="cls-1" d="M15,21.68A6.68,6.68,0,1,1,21.68,15,6.69,6.69,0,0,1,15,21.68Zm0-11.36A4.68,4.68,0,1,0,19.68,15,4.68,4.68,0,0,0,15,10.32Z"/><path class="cls-2" d="M15,12.13a2.84,2.84,0,0,0-1.6.49L9.24,9.05V6.89L7.13,4.74V8L3.91,8,6,10.14H8.19l4.24,3.63A2.85,2.85,0,1,0,15,12.13Z"/></svg>