<svg id="Layer_1" data-name="Layer 1" xmlns="http://www.w3.org/2000/svg" viewBox="0 0 30 30"><defs><style>.cls-1{fill:#013e5b;}.cls-2{fill:#d14a5b;}</style></defs><title>clock_icon</title><path class="cls-1" d="M15.28,29.53A14.42,14.42,0,1,1,29.7,15.11,14.43,14.43,0,0,1,15.28,29.53Zm0-27.21A12.79,12.79,0,1,0,28.07,15.11,12.81,12.81,0,0,0,15.28,2.32Z"/><path class="cls-2" d="M15.28,26.67A11.56,11.56,0,1,1,26.84,15.11,11.57,11.57,0,0,1,15.28,26.67Zm0-22.14A10.58,10.58,0,1,0,25.86,15.11,10.59,10.59,0,0,0,15.28,4.53Z"/><circle class="cls-1" cx="14.75" cy="16.42" r="1.2"/><path class="cls-1" d="M14.75,16.91a.49.49,0,0,1-.49-.49V7.37a.49.49,0,1,1,1,0v9.06A.49.49,0,0,1,14.75,16.91Z"/><path class="cls-1" d="M20.62,20.84a.49.49,0,0,1-.27-.08l-5.87-3.84a.49.49,0,1,1,.53-.82l5.87,3.84a.49.49,0,0,1-.27.9Z"/></svg>