<?xml version="1.0" encoding="utf-8"?>
<!-- Generator: Adobe Illustrator 20.1.0, SVG Export Plug-In . SVG Version: 6.00 Build 0)  -->
<svg version="1.1" id="Layer_1" xmlns="http://www.w3.org/2000/svg" xmlns:xlink="http://www.w3.org/1999/xlink" x="0px" y="0px"
	 viewBox="0 0 388 169" style="enable-background:new 0 0 388 169;" xml:space="preserve">
<style type="text/css">
	.st0{clip-path:url(#SVGID_4_);fill-rule:evenodd;clip-rule:evenodd;fill:#FFFFFF;}
	.st1{clip-path:url(#SVGID_6_);}
	.st2{clip-path:url(#SVGID_8_);}
	.st3{clip-path:url(#SVGID_10_);fill:#D14B5C;}
	.st4{clip-path:url(#SVGID_12_);}
	.st5{clip-path:url(#SVGID_14_);fill:none;stroke:#023F5C;stroke-width:4;stroke-miterlimit:10;}
	.st6{fill:#FFFFFF;}
	.st7{clip-path:url(#SVGID_16_);}
	.st8{clip-path:url(#SVGID_18_);fill:#077A8E;}
	.st9{clip-path:url(#SVGID_22_);fill-rule:evenodd;clip-rule:evenodd;fill:#FFFFFF;}
	.st10{clip-path:url(#SVGID_26_);fill-rule:evenodd;clip-rule:evenodd;fill:#FFFFFF;}
	.st11{clip-path:url(#SVGID_30_);fill-rule:evenodd;clip-rule:evenodd;fill:#FFFFFF;}
	.st12{clip-path:url(#SVGID_32_);}
	.st13{clip-path:url(#SVGID_34_);fill:#FFFFFF;}
	.st14{clip-path:url(#SVGID_36_);}
	.st15{opacity:0.1;clip-path:url(#SVGID_38_);fill:none;stroke:#010101;stroke-miterlimit:10;}
	.st16{fill:none;stroke:#023F5C;stroke-width:2;stroke-linecap:square;stroke-miterlimit:10;}
	.st17{clip-path:url(#SVGID_40_);}
	.st18{clip-path:url(#SVGID_42_);fill:#EAEEEE;}
	.st19{clip-path:url(#SVGID_44_);}
	.st20{clip-path:url(#SVGID_46_);fill:#023F5C;}
	.st21{clip-path:url(#SVGID_48_);}
	.st22{clip-path:url(#SVGID_50_);fill:#023F5C;}
	.st23{clip-path:url(#SVGID_52_);}
	.st24{clip-path:url(#SVGID_54_);fill:#023F5C;}
	.st25{clip-path:url(#SVGID_56_);}
	.st26{clip-path:url(#SVGID_58_);fill:#023F5C;}
	.st27{clip-path:url(#SVGID_60_);}
	.st28{clip-path:url(#SVGID_62_);fill:#023F5C;}
	.st29{clip-path:url(#SVGID_64_);}
	.st30{clip-path:url(#SVGID_66_);fill:#023F5C;}
	.st31{clip-path:url(#SVGID_68_);}
	.st32{clip-path:url(#SVGID_70_);fill:#023F5C;}
	.st33{clip-path:url(#SVGID_72_);}
	.st34{clip-path:url(#SVGID_74_);fill:#023F5C;}
	.st35{clip-path:url(#SVGID_76_);}
	.st36{clip-path:url(#SVGID_78_);fill:#D14B5C;}
	.st37{clip-path:url(#SVGID_80_);}
	.st38{clip-path:url(#SVGID_82_);enable-background:new    ;}
	.st39{clip-path:url(#SVGID_84_);}
	.st40{clip-path:url(#SVGID_86_);}
	.st41{clip-path:url(#SVGID_88_);fill:#D14B5C;}
	.st42{clip-path:url(#SVGID_90_);}
	.st43{clip-path:url(#SVGID_92_);fill:#023F5C;}
	.st44{clip-path:url(#SVGID_94_);}
	.st45{clip-path:url(#SVGID_96_);fill:#D14B5C;}
	.st46{clip-path:url(#SVGID_98_);}
	.st47{clip-path:url(#SVGID_100_);fill:#D14B5C;}
	.st48{clip-path:url(#SVGID_102_);}
	.st49{clip-path:url(#SVGID_104_);fill:#EAEEEE;}
	.st50{clip-path:url(#SVGID_106_);}
	.st51{clip-path:url(#SVGID_108_);fill:#023F5C;}
</style>
<g>
	<defs>
		<rect id="SVGID_1_" x="17" y="19" width="355" height="135"/>
	</defs>
	<clipPath id="SVGID_2_">
		<use xlink:href="#SVGID_1_"  style="overflow:visible;"/>
	</clipPath>
	<g style="clip-path:url(#SVGID_2_);">
		
			<image style="overflow:visible;" width="355" height="135" xlink:href="6F4551CD5D44509F.png"  transform="matrix(1 0 0 1 17 19)">
		</image>
	</g>
</g>
<g>
	<defs>
		<rect id="SVGID_3_" x="6" y="6" width="375" height="167"/>
	</defs>
	<clipPath id="SVGID_4_">
		<use xlink:href="#SVGID_3_"  style="overflow:visible;"/>
	</clipPath>
	<path class="st0" d="M-747,47c0-14.4,11.6-26,26-26h294c14.4,0,26,11.6,26,26v75c0,14.4-11.6,26-26,26h-294c-14.4,0-26-11.6-26-26
		V47z"/>
</g>
<g>
	<defs>
		<path id="SVGID_5_" d="M20,47v75c0,14.9,12.1,27,27,27h294c14.9,0,27-12.1,27-27V47c0-14.9-12.1-27-27-27H47
			C32.1,20,20,32.1,20,47z M22,47c0-13.8,11.2-25,25-25h294c13.8,0,25,11.2,25,25v75c0,13.8-11.2,25-25,25H47c-13.8,0-25-11.2-25-25
			V47z M0,0h388v169H0V0z"/>
	</defs>
	<clipPath id="SVGID_6_">
		<use xlink:href="#SVGID_5_"  style="overflow:visible;"/>
	</clipPath>
	<g class="st1">
		<defs>
			<path id="SVGID_7_" d="M21,47c0-14.4,11.6-26,26-26h294c14.4,0,26,11.6,26,26v75c0,14.4-11.6,26-26,26H47c-14.4,0-26-11.6-26-26
				V47z"/>
		</defs>
		<clipPath id="SVGID_8_">
			<use xlink:href="#SVGID_7_"  style="overflow:visible;"/>
		</clipPath>
		<g class="st2">
			<defs>
				<rect id="SVGID_9_" x="6" y="-445" width="375" height="667"/>
			</defs>
			<clipPath id="SVGID_10_">
				<use xlink:href="#SVGID_9_"  style="overflow:visible;"/>
			</clipPath>
			<path class="st3" d="M21,47c0-14.4,11.6-26,26-26h294c14.4,0,26,11.6,26,26v75c0,14.4-11.6,26-26,26H47c-14.4,0-26-11.6-26-26V47
				z"/>
		</g>
	</g>
</g>
<g>
	<defs>
		<path id="SVGID_11_" d="M21,47c0-14.4,11.6-26,26-26h294c14.4,0,26,11.6,26,26v75c0,14.4-11.6,26-26,26H47c-14.4,0-26-11.6-26-26
			V47z"/>
	</defs>
	<clipPath id="SVGID_12_">
		<use xlink:href="#SVGID_11_"  style="overflow:visible;"/>
	</clipPath>
	<g class="st4">
		<defs>
			<rect id="SVGID_13_" x="6" y="-445" width="375" height="667"/>
		</defs>
		<clipPath id="SVGID_14_">
			<use xlink:href="#SVGID_13_"  style="overflow:visible;"/>
		</clipPath>
		<path class="st5" d="M21,47c0-14.4,11.6-26,26-26h294c14.4,0,26,11.6,26,26v75c0,14.4-11.6,26-26,26H47c-14.4,0-26-11.6-26-26V47z
			"/>
	</g>
</g>
<g>
	<g>
		<path class="st6" d="M120.9,42.2l5.3,7v-7h1.6V52h-1.6l-5.2-7v7h-1.7v-9.8H120.9z"/>
		<path class="st6" d="M136.8,48.9h-5.6c0.3,1.1,1.1,1.9,2.3,1.9c0.8,0,1.6-0.3,2.1-0.9l0.9,0.9c-0.7,0.8-1.8,1.3-3.1,1.3
			c-2.3,0-3.8-1.5-3.8-3.8c0-2.3,1.6-3.8,3.8-3.8C136,44.5,137,46.2,136.8,48.9z M135.4,47.7c-0.1-1.2-0.9-1.9-2.1-1.9
			c-1.2,0-2,0.7-2.2,1.9H135.4z"/>
		<path class="st6" d="M139.5,44.5l1.7,2.5l1.7-2.5h1.8l-2.4,3.6l2.6,3.8H143l-1.8-2.7l-1.9,2.7h-1.8l2.6-3.8l-2.5-3.6H139.5z"/>
		<path class="st6" d="M150.5,51.5c-0.6,0.4-1.2,0.5-1.8,0.5c-1.1,0-2.1-0.6-2.1-2.2V46h-1.1v-1.2h1.1v-2h1.6v2h2.2V46h-2.2v3.6
			c0,0.8,0.3,1,0.8,1c0.3,0,0.7-0.1,1.1-0.3L150.5,51.5z"/>
		<path class="st6" d="M160,43.6c-2,0-3.5,1.5-3.5,3.4s1.5,3.5,3.5,3.5c1,0,2-0.4,2.7-1.2l1,1.1c-1,1-2.4,1.6-3.8,1.6
			c-2.9,0-5.1-2.2-5.1-5c0-2.8,2.3-4.9,5.2-4.9c1.4,0,2.8,0.6,3.7,1.5l-1,1.2C162.1,44.1,161,43.6,160,43.6z"/>
		<path class="st6" d="M172.4,48.3c0,2.2-1.6,3.8-3.9,3.8c-2.3,0-3.9-1.5-3.9-3.8c0-2.3,1.6-3.8,3.9-3.8
			C170.8,44.5,172.4,46,172.4,48.3z M166.2,48.3c0,1.4,0.9,2.4,2.3,2.4c1.3,0,2.3-1,2.3-2.4c0-1.4-0.9-2.4-2.3-2.4
			C167.2,45.9,166.2,46.9,166.2,48.3z"/>
		<path class="st6" d="M186.5,47.4V52h-1.6v-4.2c0-1.1-0.7-1.8-1.8-1.8c-1.3,0-2,1-2,2.3V52h-1.6v-4.2c0-1.1-0.7-1.8-1.8-1.8
			c-1.3,0-2.1,1-2.1,2.3V52h-1.6v-7.5h1.6V46c0.5-1.1,1.5-1.5,2.7-1.5c1.3,0,2.2,0.7,2.6,1.8c0.5-1.2,1.5-1.8,2.8-1.8
			C185.5,44.5,186.5,45.6,186.5,47.4z"/>
		<path class="st6" d="M201.1,47.4V52h-1.6v-4.2c0-1.1-0.7-1.8-1.8-1.8c-1.3,0-2,1-2,2.3V52h-1.6v-4.2c0-1.1-0.7-1.8-1.8-1.8
			c-1.3,0-2.1,1-2.1,2.3V52h-1.6v-7.5h1.6V46c0.5-1.1,1.5-1.5,2.7-1.5c1.3,0,2.2,0.7,2.6,1.8c0.5-1.2,1.5-1.8,2.8-1.8
			C200.1,44.5,201.1,45.6,201.1,47.4z"/>
		<path class="st6" d="M210.1,44.5V52h-1.6v-1.5c-0.5,1-1.4,1.5-2.7,1.5c-1.7,0-2.7-1.1-2.7-2.9v-4.6h1.6v4.2c0,1.1,0.7,1.8,1.7,1.8
			c1.3,0,2-1,2-2.3v-3.7H210.1z"/>
		<path class="st6" d="M216.6,51.5c-0.6,0.4-1.2,0.5-1.8,0.5c-1.1,0-2.1-0.6-2.1-2.2V46h-1.1v-1.2h1.1v-2h1.6v2h2.2V46h-2.2v3.6
			c0,0.8,0.3,1,0.8,1c0.3,0,0.7-0.1,1.1-0.3L216.6,51.5z"/>
		<path class="st6" d="M224.7,48.9h-5.6c0.3,1.1,1.1,1.9,2.3,1.9c0.8,0,1.6-0.3,2.1-0.9l0.9,0.9c-0.7,0.8-1.8,1.3-3.1,1.3
			c-2.3,0-3.8-1.5-3.8-3.8c0-2.3,1.6-3.8,3.8-3.8C223.8,44.5,224.9,46.2,224.7,48.9z M223.3,47.7c-0.1-1.2-0.9-1.9-2.1-1.9
			c-1.2,0-2,0.7-2.2,1.9H223.3z"/>
	</g>
	<g>
		<path class="st6" d="M141.7,115.4l6.8,9.1v-9.1h2.1V128h-2.1l-6.7-9v9h-2.1v-12.6H141.7z"/>
		<path class="st6" d="M162.9,115.4v1.9H156v3.4h6.2v1.9H156v3.5h7.1v1.9h-9.2v-12.6H162.9z"/>
		<path class="st6" d="M167.1,115.4l3.1,4.4l3.1-4.4h2.5l-4.2,6l4.6,6.6h-2.5l-3.4-4.8l-3.4,4.8h-2.5l4.6-6.5l-4.3-6.1H167.1z"/>
		<path class="st6" d="M186.8,115.4v1.9h-4V128h-2.1v-10.7h-4v-1.9H186.8z"/>
		<path class="st6" d="M201.2,128l-2.3-3.8c-0.2,0-0.4,0-0.6,0h-3v3.8h-2.1v-12.6h5.1c3.2,0,5.1,1.6,5.1,4.3c0,2-0.9,3.4-2.6,4.1
			l2.8,4.2H201.2z M198.4,122.3c1.9,0,3.1-0.8,3.1-2.5c0-1.7-1.1-2.4-3.1-2.4h-3v5H198.4z"/>
		<path class="st6" d="M218.6,121.7c0,3.6-2.9,6.4-6.7,6.4s-6.7-2.8-6.7-6.4c0-3.6,2.9-6.4,6.7-6.4S218.6,118.1,218.6,121.7z
			 M207.4,121.7c0,2.5,2.1,4.5,4.5,4.5s4.5-2,4.5-4.5s-2-4.4-4.5-4.4C209.4,117.3,207.4,119.2,207.4,121.7z"/>
		<path class="st6" d="M226.1,126.2c2.1,0,3.3-1.3,3.3-3.4v-7.4h2.1v7.4c0,3.3-2.1,5.3-5.5,5.3c-3.4,0-5.5-2-5.5-5.3v-7.4h2.1v7.4
			C222.7,124.9,224,126.2,226.1,126.2z"/>
		<path class="st6" d="M243.2,115.4v1.9h-4V128h-2.1v-10.7h-4v-1.9H243.2z"/>
		<path class="st6" d="M254,115.4v1.9h-6.9v3.4h6.2v1.9h-6.2v3.5h7.1v1.9H245v-12.6H254z"/>
	</g>
	<g>
		<path class="st6" d="M124.3,76.8c3.2,0,4.8-2.4,4.7-6.1c-0.9,1.6-2.4,2.4-4.6,2.4c-3.3,0-5.4-2.1-5.4-5.4c0-3.5,2.3-5.6,5.9-5.6
			c4.2,0,6.8,3,6.8,8.2c0,5.4-2.8,8.9-7.2,8.9c-1.7,0-3.6-0.5-5-1.3l1.1-2.1C121.6,76.4,123,76.8,124.3,76.8z M121.6,67.7
			c0,1.9,1.2,3.1,3.3,3.1c2.3,0,3.6-1.5,3.6-3.2c0-1.5-1-3.1-3.5-3.1C123,64.5,121.6,65.7,121.6,67.7z"/>
		<path class="st6" d="M136.9,70.5c0,0.9-0.6,1.6-1.5,1.6s-1.5-0.7-1.5-1.6c0-0.9,0.6-1.6,1.5-1.6S136.9,69.6,136.9,70.5z
			 M136.9,77.6c0,0.9-0.6,1.6-1.5,1.6s-1.5-0.7-1.5-1.6c0-0.9,0.6-1.6,1.5-1.6S136.9,76.7,136.9,77.6z"/>
		<path class="st6" d="M151.8,70.6c0,5.5-2.3,8.5-6.3,8.5c-4.1,0-6.3-3-6.3-8.5c0-5.4,2.3-8.5,6.3-8.5
			C149.5,62.1,151.8,65.1,151.8,70.6z M141.9,70.6c0,4.3,1.2,6.3,3.5,6.3c2.3,0,3.5-2,3.5-6.3s-1.2-6.3-3.5-6.3
			C143.1,64.3,141.9,66.3,141.9,70.6z"/>
		<path class="st6" d="M166.6,70.6c0,5.5-2.3,8.5-6.3,8.5c-4.1,0-6.3-3-6.3-8.5c0-5.4,2.3-8.5,6.3-8.5
			C164.3,62.1,166.6,65.1,166.6,70.6z M156.7,70.6c0,4.3,1.2,6.3,3.5,6.3c2.3,0,3.5-2,3.5-6.3s-1.2-6.3-3.5-6.3
			C157.9,64.3,156.7,66.3,156.7,70.6z"/>
		<path class="st6" d="M188,66.2V79h-2.7v-2.2c-0.9,1.5-2.4,2.3-4.5,2.3c-3.7,0-6.1-2.7-6.1-6.6c0-3.8,2.4-6.4,6-6.5
			c2.1,0,3.6,0.8,4.6,2.3v-2.2H188z M185.3,73.1v-0.9c-0.2-2.2-1.7-3.7-3.9-3.7c-2.3,0-3.9,1.8-3.9,4.2c0,2.4,1.6,4.2,3.9,4.2
			C183.5,76.8,185.1,75.3,185.3,73.1z"/>
		<path class="st6" d="M213.4,71.1V79h-2.8v-7.2c0-1.9-1.2-3.1-3-3.1c-2.2,0.1-3.5,1.8-3.5,4V79h-2.8v-7.2c0-1.9-1.1-3.1-3-3.1
			c-2.2,0.1-3.6,1.8-3.6,4V79h-2.7V66.2h2.7v2.5c0.9-1.8,2.5-2.6,4.6-2.6c2.3,0,3.8,1.1,4.4,3.1c0.8-2.1,2.5-3.1,4.8-3.1
			C211.7,66.1,213.4,68,213.4,71.1z"/>
	</g>
</g>
<g>
	<defs>
		<path id="SVGID_15_" d="M311.5,55c-8.6,0-15.5,6.9-15.5,15.5c0,8.6,6.9,15.5,15.5,15.5h20c8.6,0,15.5-6.9,15.5-15.5
			c0-8.6-6.9-15.5-15.5-15.5H311.5z"/>
	</defs>
	<clipPath id="SVGID_16_">
		<use xlink:href="#SVGID_15_"  style="overflow:visible;"/>
	</clipPath>
	<g class="st7">
		<defs>
			<rect id="SVGID_17_" x="296" y="55" width="57" height="44"/>
		</defs>
		<clipPath id="SVGID_18_">
			<use xlink:href="#SVGID_17_"  style="overflow:visible;"/>
		</clipPath>
		<rect x="291" y="50" class="st8" width="61" height="41"/>
	</g>
</g>
<g>
	<defs>
		<rect id="SVGID_19_" x="314" y="56" width="35" height="35"/>
	</defs>
	<clipPath id="SVGID_20_">
		<use xlink:href="#SVGID_19_"  style="overflow:visible;"/>
	</clipPath>
	<g style="clip-path:url(#SVGID_20_);">
		<image style="overflow:visible;" width="35" height="35" xlink:href="6F4551CD5D44509D.png"  transform="matrix(1 0 0 1 314 56)">
		</image>
	</g>
</g>
<g>
	<defs>
		<rect id="SVGID_21_" x="303.5" y="55" width="49.5" height="44"/>
	</defs>
	<clipPath id="SVGID_22_">
		<use xlink:href="#SVGID_21_"  style="overflow:visible;"/>
	</clipPath>
	<circle class="st9" cx="205.5" cy="70.5" r="14.2"/>
</g>
<g>
	<defs>
		<rect id="SVGID_23_" x="315" y="56" width="33" height="33"/>
	</defs>
	<clipPath id="SVGID_24_">
		<use xlink:href="#SVGID_23_"  style="overflow:visible;"/>
	</clipPath>
	<g style="clip-path:url(#SVGID_24_);">
		<image style="overflow:visible;" width="33" height="33" xlink:href="6F4551CD5D4450A3.png"  transform="matrix(1 0 0 1 315 56)">
		</image>
	</g>
</g>
<g>
	<defs>
		<rect id="SVGID_25_" x="306.5" y="55" width="46.5" height="44"/>
	</defs>
	<clipPath id="SVGID_26_">
		<use xlink:href="#SVGID_25_"  style="overflow:visible;"/>
	</clipPath>
	<circle class="st10" cx="221.5" cy="70.5" r="14.2"/>
</g>
<g>
	<defs>
		<rect id="SVGID_27_" x="316" y="58" width="31" height="31"/>
	</defs>
	<clipPath id="SVGID_28_">
		<use xlink:href="#SVGID_27_"  style="overflow:visible;"/>
	</clipPath>
	<g style="clip-path:url(#SVGID_28_);">
		<image style="overflow:visible;" width="31" height="31" xlink:href="6F4551CD5D4450A5.png"  transform="matrix(1 0 0 1 316 58)">
		</image>
	</g>
</g>
<g>
	<defs>
		<rect id="SVGID_29_" x="307.5" y="55" width="45.5" height="44"/>
	</defs>
	<clipPath id="SVGID_30_">
		<use xlink:href="#SVGID_29_"  style="overflow:visible;"/>
	</clipPath>
	<circle class="st11" cx="229.5" cy="70.5" r="14.2"/>
</g>
<g>
	<defs>
		<circle id="SVGID_31_" cx="331.5" cy="70.5" r="14"/>
	</defs>
	<clipPath id="SVGID_32_">
		<use xlink:href="#SVGID_31_"  style="overflow:visible;"/>
	</clipPath>
	<g class="st12">
		<defs>
			<rect id="SVGID_33_" x="296" y="55" width="57" height="44"/>
		</defs>
		<clipPath id="SVGID_34_">
			<use xlink:href="#SVGID_33_"  style="overflow:visible;"/>
		</clipPath>
		<rect x="312.5" y="51.5" class="st13" width="38" height="38"/>
	</g>
</g>
<g>
	<defs>
		<path id="SVGID_35_" d="M331.5,84.5c7.7,0,14-6.3,14-14s-6.3-14-14-14s-14,6.3-14,14S323.8,84.5,331.5,84.5z M307.5,46.5h48v48
			h-48V46.5z"/>
	</defs>
	<clipPath id="SVGID_36_">
		<use xlink:href="#SVGID_35_"  style="overflow:visible;"/>
	</clipPath>
	<g class="st14">
		<defs>
			<rect id="SVGID_37_" x="296" y="55" width="57" height="44"/>
		</defs>
		<clipPath id="SVGID_38_">
			<use xlink:href="#SVGID_37_"  style="overflow:visible;"/>
		</clipPath>
		<circle class="st15" cx="331.5" cy="70.5" r="14"/>
	</g>
</g>
<g>
	<g>
		<path class="st6" d="M287.3,40.8c-0.6,0-1.1,0.2-1.1,0.7c0,1.4,4,0.6,4,3.3c0,1.5-1.4,2.2-2.9,2.2c-1.1,0-2.3-0.4-3-1l0.6-1.1
			c0.6,0.6,1.7,0.9,2.5,0.9c0.7,0,1.2-0.2,1.2-0.8c0-1.5-3.9-0.7-3.9-3.4c0-1.5,1.3-2.2,2.7-2.2c0.9,0,1.9,0.3,2.6,0.8l-0.6,1.2
			C288.8,41,288,40.8,287.3,40.8z"/>
		<path class="st6" d="M298.3,43.9h-5.6c0.3,1.1,1.1,1.9,2.3,1.9c0.8,0,1.6-0.3,2.1-0.9l0.9,0.9c-0.7,0.8-1.8,1.3-3.1,1.3
			c-2.3,0-3.8-1.5-3.8-3.8c0-2.3,1.6-3.8,3.8-3.8C297.5,39.5,298.5,41.2,298.3,43.9z M296.9,42.7c-0.1-1.2-0.9-1.9-2.1-1.9
			c-1.2,0-2,0.7-2.2,1.9H296.9z"/>
		<path class="st6" d="M304.2,46.5c-0.6,0.4-1.2,0.5-1.8,0.5c-1.1,0-2.1-0.6-2.1-2.2V41h-1.1v-1.2h1.1v-2h1.6v2h2.2V41h-2.2v3.6
			c0,0.8,0.3,1,0.8,1c0.3,0,0.7-0.1,1.1-0.3L304.2,46.5z"/>
		<path class="st6" d="M313.8,47v-0.9c-0.5,0.7-1.4,1-2.5,1c-1.6,0-2.6-1-2.6-2.3c0-1.4,1-2.2,2.8-2.2h2.3v-0.2
			c0-0.9-0.6-1.5-1.8-1.5c-0.7,0-1.5,0.3-2.2,0.8l-0.7-1.1c1-0.6,1.8-0.9,3.2-0.9c1.9,0,3,1,3,2.6l0,4.9H313.8z M313.8,44.4v-0.7h-2
			c-1.1,0-1.5,0.3-1.5,1c0,0.7,0.5,1.1,1.4,1.1C312.8,45.8,313.7,45.2,313.8,44.4z"/>
		<path class="st6" d="M319.2,36.6V47h-1.6V36.6H319.2z"/>
		<path class="st6" d="M326.1,47v-0.9c-0.5,0.7-1.4,1-2.5,1c-1.6,0-2.6-1-2.6-2.3c0-1.4,1-2.2,2.8-2.2h2.3v-0.2
			c0-0.9-0.6-1.5-1.8-1.5c-0.7,0-1.5,0.3-2.2,0.8l-0.7-1.1c1-0.6,1.8-0.9,3.2-0.9c1.9,0,3,1,3,2.6l0,4.9H326.1z M326.1,44.4v-0.7h-2
			c-1.1,0-1.5,0.3-1.5,1c0,0.7,0.5,1.1,1.4,1.1C325.1,45.8,326,45.2,326.1,44.4z"/>
		<path class="st6" d="M334,39.5V41c-1.5-0.1-2.5,0.8-2.6,2.1V47h-1.6v-7.5h1.6V41C332,40,332.9,39.5,334,39.5z"/>
		<path class="st6" d="M347.8,42.4V47h-1.6v-4.2c0-1.1-0.7-1.8-1.8-1.8c-1.3,0-2,1-2,2.3V47h-1.6v-4.2c0-1.1-0.7-1.8-1.8-1.8
			c-1.3,0-2.1,1-2.1,2.3V47h-1.6v-7.5h1.6V41c0.5-1.1,1.5-1.5,2.7-1.5c1.3,0,2.2,0.7,2.6,1.8c0.5-1.2,1.5-1.8,2.8-1.8
			C346.8,39.5,347.8,40.6,347.8,42.4z"/>
	</g>
	<line class="st16" x1="23.5" y1="98" x2="365.5" y2="98"/>
</g>
<g>
	<defs>
		<path id="SVGID_39_" d="M48.1,46.9l42.7,0c1.3,0,2.4,1.1,2.4,2.4l0,29.8c0,1.3-1.1,2.4-2.4,2.4l-42.7,0c-1.3,0-2.4-1.1-2.4-2.4
			l0-29.8C45.7,48,46.8,46.9,48.1,46.9z"/>
	</defs>
	<clipPath id="SVGID_40_">
		<use xlink:href="#SVGID_39_"  style="overflow:visible;"/>
	</clipPath>
	<g class="st17">
		<defs>
			<rect id="SVGID_41_" x="6" y="-445" width="375" height="667"/>
		</defs>
		<clipPath id="SVGID_42_">
			<use xlink:href="#SVGID_41_"  style="overflow:visible;"/>
		</clipPath>
		<rect x="40.7" y="41.9" class="st18" width="57.4" height="44.5"/>
	</g>
</g>
<g>
	<defs>
		<path id="SVGID_43_" d="M90.8,82.1h-0.2l-42.7,0c-1.7,0-3-1.4-3-3l0-29.8c0-1.7,1.4-3,3-3l42.7,0c1.7,0,3,1.4,3,3l0,29.8
			C93.7,80.7,92.4,82,90.8,82.1z M90.7,80.8c0.9,0,1.7-0.8,1.7-1.7l0-29.8c0-0.9-0.8-1.7-1.7-1.7l-42.7,0c-0.9,0-1.7,0.8-1.7,1.7
			l0,29.8c0,0.9,0.8,1.7,1.7,1.7L90.7,80.8L90.7,80.8z"/>
	</defs>
	<clipPath id="SVGID_44_">
		<use xlink:href="#SVGID_43_"  style="overflow:visible;"/>
	</clipPath>
	<g class="st19">
		<defs>
			<rect id="SVGID_45_" x="6" y="-445" width="375" height="667"/>
		</defs>
		<clipPath id="SVGID_46_">
			<use xlink:href="#SVGID_45_"  style="overflow:visible;"/>
		</clipPath>
		<rect x="40" y="41.3" class="st20" width="58.8" height="45.8"/>
	</g>
</g>
<g>
	<defs>
		<path id="SVGID_47_" d="M74.5,47.2l-11.4,0l0-6.4c0-0.6,0.5-1,1-1h0l9.3,0c0.6,0,1,0.5,1,1L74.5,47.2z M64.2,46.2l9.4,0l0-5.4
			c0,0,0,0,0,0l-9.3,0c0,0,0,0,0,0L64.2,46.2z"/>
	</defs>
	<clipPath id="SVGID_48_">
		<use xlink:href="#SVGID_47_"  style="overflow:visible;"/>
	</clipPath>
	<g class="st21">
		<defs>
			<rect id="SVGID_49_" x="6" y="-445" width="375" height="667"/>
		</defs>
		<clipPath id="SVGID_50_">
			<use xlink:href="#SVGID_49_"  style="overflow:visible;"/>
		</clipPath>
		<rect x="58.2" y="34.8" class="st22" width="21.4" height="17.4"/>
	</g>
</g>
<g>
	<defs>
		<path id="SVGID_51_" d="M54.1,81.9c0.2,1.3,1.3,2.2,2.6,2c1-0.1,1.9-1,2-2H54.1z"/>
	</defs>
	<clipPath id="SVGID_52_">
		<use xlink:href="#SVGID_51_"  style="overflow:visible;"/>
	</clipPath>
	<g class="st23">
		<defs>
			<rect id="SVGID_53_" x="6" y="-445" width="375" height="667"/>
		</defs>
		<clipPath id="SVGID_54_">
			<use xlink:href="#SVGID_53_"  style="overflow:visible;"/>
		</clipPath>
		<rect x="49.1" y="76.9" class="st24" width="14.6" height="12"/>
	</g>
</g>
<g>
	<defs>
		<path id="SVGID_55_" d="M78.7,81.9c0.2,1.3,1.3,2.2,2.6,2c1-0.1,1.9-1,2-2H78.7z"/>
	</defs>
	<clipPath id="SVGID_56_">
		<use xlink:href="#SVGID_55_"  style="overflow:visible;"/>
	</clipPath>
	<g class="st25">
		<defs>
			<rect id="SVGID_57_" x="6" y="-445" width="375" height="667"/>
		</defs>
		<clipPath id="SVGID_58_">
			<use xlink:href="#SVGID_57_"  style="overflow:visible;"/>
		</clipPath>
		<rect x="73.7" y="76.9" class="st26" width="14.6" height="12"/>
	</g>
</g>
<g>
	<defs>
		<polygon id="SVGID_59_" points="59,62.5 59,80.7 53.7,80.7 53.7,62.5 52.7,62.5 52.7,58.4 53.7,58.4 53.7,47.6 59,47.6 59,58.5 
			60.4,58.5 60.4,46.3 52.4,46.2 52.3,82.1 60.4,82.1 60.4,62.5 		"/>
	</defs>
	<clipPath id="SVGID_60_">
		<use xlink:href="#SVGID_59_"  style="overflow:visible;"/>
	</clipPath>
	<g class="st27">
		<defs>
			<rect id="SVGID_61_" x="6" y="-445" width="375" height="667"/>
		</defs>
		<clipPath id="SVGID_62_">
			<use xlink:href="#SVGID_61_"  style="overflow:visible;"/>
		</clipPath>
		<rect x="47.3" y="41.2" class="st28" width="18.1" height="45.9"/>
	</g>
</g>
<g>
	<defs>
		<polygon id="SVGID_63_" points="78.4,58.3 78.4,47.7 83.7,47.7 83.7,58.3 85.1,58.3 85.1,46.3 77,46.3 77,58.3 		"/>
	</defs>
	<clipPath id="SVGID_64_">
		<use xlink:href="#SVGID_63_"  style="overflow:visible;"/>
	</clipPath>
	<g class="st29">
		<defs>
			<rect id="SVGID_65_" x="6" y="-445" width="375" height="667"/>
		</defs>
		<clipPath id="SVGID_66_">
			<use xlink:href="#SVGID_65_"  style="overflow:visible;"/>
		</clipPath>
		<rect x="72" y="41.3" class="st30" width="18.1" height="22"/>
	</g>
</g>
<g>
	<defs>
		<polygon id="SVGID_67_" points="83.7,63.1 83.6,80.8 78.3,80.8 78.4,63.1 77,63.1 77,82.1 85,82.1 85,63.1 		"/>
	</defs>
	<clipPath id="SVGID_68_">
		<use xlink:href="#SVGID_67_"  style="overflow:visible;"/>
	</clipPath>
	<g class="st31">
		<defs>
			<rect id="SVGID_69_" x="6" y="-445" width="375" height="667"/>
		</defs>
		<clipPath id="SVGID_70_">
			<use xlink:href="#SVGID_69_"  style="overflow:visible;"/>
		</clipPath>
		<rect x="72" y="58.1" class="st32" width="18.1" height="29"/>
	</g>
</g>
<g>
	<defs>
		<path id="SVGID_71_" d="M56.7,70.6h-0.2h-0.3c-2.2,0-4-1.8-4-4v-4.2h8.2v4.2C60.4,68.7,58.8,70.4,56.7,70.6z M53.2,63.4v3.2
			c0,1.6,1.3,3,3,3h0.3c1.6,0,3-1.3,3-3v-3.2L53.2,63.4z"/>
	</defs>
	<clipPath id="SVGID_72_">
		<use xlink:href="#SVGID_71_"  style="overflow:visible;"/>
	</clipPath>
	<g class="st33">
		<defs>
			<rect id="SVGID_73_" x="6" y="-445" width="375" height="667"/>
		</defs>
		<clipPath id="SVGID_74_">
			<use xlink:href="#SVGID_73_"  style="overflow:visible;"/>
		</clipPath>
		<rect x="47.3" y="57.4" class="st34" width="18.2" height="18.2"/>
	</g>
</g>
<g>
	<defs>
		<path id="SVGID_75_" d="M55.4,60.5c0-0.6,0.5-1.1,1.1-1.1c0.6,0,1.1,0.5,1.1,1.1c0,0.6-0.5,1.1-1.1,1.1
			C55.9,61.7,55.4,61.1,55.4,60.5"/>
	</defs>
	<clipPath id="SVGID_76_">
		<use xlink:href="#SVGID_75_"  style="overflow:visible;"/>
	</clipPath>
	<g class="st35">
		<defs>
			<rect id="SVGID_77_" x="6" y="-445" width="375" height="667"/>
		</defs>
		<clipPath id="SVGID_78_">
			<use xlink:href="#SVGID_77_"  style="overflow:visible;"/>
		</clipPath>
		<rect x="50.4" y="54.4" class="st36" width="12.3" height="12.3"/>
	</g>
</g>
<g>
	<defs>
		<rect id="SVGID_79_" x="45" y="36" width="48.8" height="48"/>
	</defs>
	<clipPath id="SVGID_80_">
		<use xlink:href="#SVGID_79_"  style="overflow:visible;"/>
	</clipPath>
	<g class="st37">
		<defs>
			<rect id="SVGID_81_" x="6" y="-445" width="375" height="667"/>
		</defs>
		<clipPath id="SVGID_82_">
			<use xlink:href="#SVGID_81_"  style="overflow:visible;"/>
		</clipPath>
		<g class="st38">
			<g>
				<defs>
					<rect id="SVGID_83_" x="51" y="36" width="36" height="35"/>
				</defs>
				<clipPath id="SVGID_84_">
					<use xlink:href="#SVGID_83_"  style="overflow:visible;"/>
				</clipPath>
				<g class="st39">
					<defs>
						<path id="SVGID_85_" d="M51.7,63.5h10v-5.9h-10V63.5z M53.2,62.1h6.7v-3.3h-6.7V62.1z"/>
					</defs>
					<clipPath id="SVGID_86_">
						<use xlink:href="#SVGID_85_"  style="overflow:visible;"/>
					</clipPath>
					<g class="st40">
						<defs>
							<rect id="SVGID_87_" x="45" y="36" width="49" height="48"/>
						</defs>
						<clipPath id="SVGID_88_">
							<use xlink:href="#SVGID_87_"  style="overflow:visible;"/>
						</clipPath>
						<rect x="46.7" y="52.6" class="st41" width="20" height="15.9"/>
					</g>
				</g>
				<g class="st39">
					<defs>
						<path id="SVGID_89_" d="M81.4,70.7h-0.2h-0.3c-2.2,0-4-1.8-4-4v-4.2h8.2v4.2C85.1,68.9,83.5,70.6,81.4,70.7z M77.9,63.5v3.2
							c0,1.6,1.3,3,3,3h0.3c1.6,0,3-1.3,3-3v-3.2L77.9,63.5z"/>
					</defs>
					<clipPath id="SVGID_90_">
						<use xlink:href="#SVGID_89_"  style="overflow:visible;"/>
					</clipPath>
					<g class="st42">
						<defs>
							<rect id="SVGID_91_" x="45" y="36" width="49" height="48"/>
						</defs>
						<clipPath id="SVGID_92_">
							<use xlink:href="#SVGID_91_"  style="overflow:visible;"/>
						</clipPath>
						<rect x="71.9" y="57.5" class="st43" width="18.2" height="18.2"/>
					</g>
				</g>
				<g class="st39">
					<defs>
						<path id="SVGID_93_" d="M76,63.7h10v-5.9H76V63.7z M77.6,62.4h6.7v-3.3h-6.7V62.4z"/>
					</defs>
					<clipPath id="SVGID_94_">
						<use xlink:href="#SVGID_93_"  style="overflow:visible;"/>
					</clipPath>
					<g class="st44">
						<defs>
							<rect id="SVGID_95_" x="45" y="36" width="49" height="48"/>
						</defs>
						<clipPath id="SVGID_96_">
							<use xlink:href="#SVGID_95_"  style="overflow:visible;"/>
						</clipPath>
						<rect x="71" y="52.8" class="st45" width="20" height="15.9"/>
					</g>
				</g>
				<g class="st39">
					<defs>
						<path id="SVGID_97_" d="M79.8,60.8c0-0.6,0.5-1.1,1.1-1.1c0.6,0,1.1,0.5,1.1,1.1c0,0.6-0.5,1.1-1.1,1.1
							C80.3,61.9,79.8,61.4,79.8,60.8"/>
					</defs>
					<clipPath id="SVGID_98_">
						<use xlink:href="#SVGID_97_"  style="overflow:visible;"/>
					</clipPath>
					<g class="st46">
						<defs>
							<rect id="SVGID_99_" x="45" y="36" width="49" height="48"/>
						</defs>
						<clipPath id="SVGID_100_">
							<use xlink:href="#SVGID_99_"  style="overflow:visible;"/>
						</clipPath>
						<rect x="74.8" y="54.6" class="st47" width="12.3" height="12.3"/>
					</g>
				</g>
				<g class="st39">
					<defs>
						<path id="SVGID_101_" d="M75.4,36.7h-13c-1.2,0-2.1,0.9-2.1,2.1v0v7.9l17.2,0v-7.9C77.5,37.6,76.5,36.7,75.4,36.7z M63.7,46.4
							h10.2v-6.3H63.7V46.4z"/>
					</defs>
					<clipPath id="SVGID_102_">
						<use xlink:href="#SVGID_101_"  style="overflow:visible;"/>
					</clipPath>
					<g class="st48">
						<defs>
							<rect id="SVGID_103_" x="45" y="36" width="49" height="48"/>
						</defs>
						<clipPath id="SVGID_104_">
							<use xlink:href="#SVGID_103_"  style="overflow:visible;"/>
						</clipPath>
						<rect x="55.3" y="31.7" class="st49" width="27.2" height="20"/>
					</g>
				</g>
				<g class="st39">
					<defs>
						<path id="SVGID_105_" d="M78.2,47.3H59.6v-8.6c0-1.5,1.2-2.8,2.8-2.8h13c1.5,0,2.8,1.2,2.8,2.8v0V47.3z M74.5,46h2.3v-7.2
							c0-0.8-0.6-1.4-1.4-1.4h0h-13c-0.8,0-1.4,0.6-1.5,1.4V46H63v-6.6h11.5L74.5,46z M64.4,45.7h8.9v-5h-8.9V45.7z"/>
					</defs>
					<clipPath id="SVGID_106_">
						<use xlink:href="#SVGID_105_"  style="overflow:visible;"/>
					</clipPath>
					<g class="st50">
						<defs>
							<rect id="SVGID_107_" x="45" y="36" width="49" height="48"/>
						</defs>
						<clipPath id="SVGID_108_">
							<use xlink:href="#SVGID_107_"  style="overflow:visible;"/>
						</clipPath>
						<rect x="54.6" y="31" class="st51" width="28.6" height="21.3"/>
					</g>
				</g>
			</g>
		</g>
	</g>
</g>
</svg>
