<svg id="Layer_1" data-name="Layer 1" xmlns="http://www.w3.org/2000/svg" viewBox="0 0 30 30"><defs><style>.cls-1{fill:#013e5b;}.cls-2{fill:#d14a5b;}</style></defs><title>home_icon</title><path class="cls-1" d="M24.15,27.48H18.58a1.39,1.39,0,0,1-1.38-1.38V19.36H12.68v6.5a1.3,1.3,0,0,1-1.3,1.3H6.11a1.3,1.3,0,0,1-1.3-1.3V15.76L15,7.2l10.55,8.44V26.09A1.39,1.39,0,0,1,24.15,27.48Zm-12.6-9.24h6.78v7.86a.25.25,0,0,0,.25.25h5.57a.25.25,0,0,0,.25-.25V16.18L15,8.67,5.94,16.29v9.57a.17.17,0,0,0,.17.17h5.27a.17.17,0,0,0,.17-.17Z"/><path class="cls-2" d="M23.82,9.12H23V4.79a.31.31,0,0,0-.31-.31H19.26a.31.31,0,0,0-.31.31v.56H18.1V4.79a1.16,1.16,0,0,1,1.15-1.15h3.41a1.16,1.16,0,0,1,1.15,1.15Z"/><path class="cls-1" d="M3.43,17.95H3.3a1.31,1.31,0,0,1-.9-.49L.54,15.05a1.31,1.31,0,0,1,.21-1.81L15,1.79,29.25,13.22a1.3,1.3,0,0,1,.2,1.83l-1.7,2.12a1.3,1.3,0,0,1-1.84.19L15,8.44,4.28,17.63A1.31,1.31,0,0,1,3.43,17.95Zm-2-3.59L3.3,16.75a.17.17,0,0,0,.24,0L15,7l11.65,9.52a.16.16,0,0,0,.12,0,.17.17,0,0,0,.11-.06l1.7-2.12a.17.17,0,0,0,0-.24L15,3.24,1.46,14.12a.17.17,0,0,0,0,.23Z"/></svg>