<svg id="Layer_1" data-name="Layer 1" xmlns="http://www.w3.org/2000/svg" xmlns:xlink="http://www.w3.org/1999/xlink" viewBox="0 0 348 48.3"><defs><style>.cls-1,.cls-7,.cls-9{fill:none;}.cls-2{clip-path:url(#clip-path);}.cls-3{clip-path:url(#clip-path-2);}.cls-4{clip-path:url(#clip-path-3);}.cls-5{clip-path:url(#clip-path-4);}.cls-6{fill:#d14b5c;}.cls-7,.cls-9{stroke:#023f5c;stroke-miterlimit:10;}.cls-7{stroke-width:4px;}.cls-8{fill:#fff;}.cls-9{stroke-width:0.99px;}</style><clipPath id="clip-path"><rect class="cls-1" x="-3" y="-80.7" width="355" height="135"/></clipPath><clipPath id="clip-path-2"><path class="cls-1" d="M0-52.7v75a27,27,0,0,0,27,27H321a27,27,0,0,0,27-27v-75a27,27,0,0,0-27-27H27A27,27,0,0,0,0-52.7Zm2,0a25,25,0,0,1,25-25H321a25,25,0,0,1,25,25v75a25,25,0,0,1-25,25H27a25,25,0,0,1-25-25Zm366-47v169H-20v-169"/></clipPath><clipPath id="clip-path-3"><rect class="cls-1" x="1" y="-78.7" width="346" height="127" rx="26" ry="26"/></clipPath><clipPath id="clip-path-4"><rect class="cls-1" x="-14" y="-544.7" width="375" height="667"/></clipPath></defs><title>home_bottom</title><g class="cls-3"><g class="cls-4"><g class="cls-5"><path class="cls-6" d="M1-52.7a26,26,0,0,1,26-26H321a26,26,0,0,1,26,26v75a26,26,0,0,1-26,26H27a26,26,0,0,1-26-26Z"/></g></g><g class="cls-4"><g class="cls-5"><path class="cls-7" d="M1-52.7a26,26,0,0,1,26-26H321a26,26,0,0,1,26,26v75a26,26,0,0,1-26,26H27a26,26,0,0,1-26-26Z"/></g><path class="cls-8" d="M121.7,15.7l6.8,9.1V15.7h2.1V28.3h-2.1l-6.7-9v9h-2.1V15.7Z"/><path class="cls-8" d="M142.9,15.7v1.9H136V21h6.2v1.9H136v3.5h7.1v1.9h-9.2V15.7Z"/><path class="cls-8" d="M147.1,15.7l3.1,4.4,3.1-4.4h2.5l-4.2,6,4.6,6.6h-2.5l-3.4-4.8-3.4,4.8h-2.5l4.6-6.5-4.3-6.1Z"/><path class="cls-8" d="M166.8,15.7v1.9h-4V28.3h-2.1V17.6h-4V15.7Z"/><path class="cls-8" d="M181.2,28.3l-2.3-3.8h-3.6v3.8h-2.1V15.7h5.1c3.2,0,5.1,1.6,5.1,4.3a4.08,4.08,0,0,1-2.6,4.1l2.8,4.2Zm-2.8-5.7c1.9,0,3.1-.8,3.1-2.5s-1.1-2.4-3.1-2.4h-3v5h3Z"/><path class="cls-8" d="M198.6,22a6.71,6.71,0,1,1-6.7-6.4A6.45,6.45,0,0,1,198.6,22Zm-11.2,0a4.5,4.5,0,0,0,9,0,4.5,4.5,0,0,0-9,0Z"/><path class="cls-8" d="M206.1,26.5a3.08,3.08,0,0,0,3.3-3.4V15.7h2.1v7.4c0,3.3-2.1,5.3-5.5,5.3s-5.5-2-5.5-5.3V15.7h2.1v7.4A3.28,3.28,0,0,0,206.1,26.5Z"/><path class="cls-8" d="M223.2,15.7v1.9h-4V28.3h-2.1V17.6h-4V15.7Z"/><path class="cls-8" d="M234,15.7v1.9h-6.9V21h6.2v1.9h-6.2v3.5h7.1v1.9H225V15.7Z"/></g></g><rect class="cls-1" x="-14" y="-543.7" width="375" height="667"/><line class="cls-9" x1="346" y1="1.3" x2="2.74" y2="1.3"/></svg>