<svg id="Layer_1" data-name="Layer 1" xmlns="http://www.w3.org/2000/svg" xmlns:xlink="http://www.w3.org/1999/xlink" viewBox="0 0 348 130"><defs><style>.cls-1,.cls-12,.cls-7,.cls-9{fill:none;}.cls-2{clip-path:url(#clip-path);}.cls-3{clip-path:url(#clip-path-2);}.cls-4{clip-path:url(#clip-path-3);}.cls-5{clip-path:url(#clip-path-4);}.cls-6{fill:#d14b5c;}.cls-7,.cls-9{stroke:#023f5c;}.cls-12,.cls-7,.cls-9{stroke-miterlimit:10;}.cls-7{stroke-width:4px;}.cls-8{fill:#fff;}.cls-9{stroke-width:0.99px;}.cls-10{fill:#eaeeef;}.cls-11{fill:#013e5b;}.cls-12{stroke:#013e5b;stroke-width:0.99px;}.cls-13{fill:#d14a5b;}</style><clipPath id="clip-path"><rect class="cls-1" x="-3" width="355" height="135"/></clipPath><clipPath id="clip-path-2"><path class="cls-1" d="M0,28v75a27,27,0,0,0,27,27H321a27,27,0,0,0,27-27V28A27,27,0,0,0,321,1H27A27,27,0,0,0,0,28Zm2,0A25,25,0,0,1,27,3H321a25,25,0,0,1,25,25v75a25,25,0,0,1-25,25H27A25,25,0,0,1,2,103ZM368-19V150H-20V-19"/></clipPath><clipPath id="clip-path-3"><rect class="cls-1" x="1" y="2" width="346" height="127" rx="26" ry="26"/></clipPath><clipPath id="clip-path-4"><rect class="cls-1" x="-14" y="-464" width="375" height="667"/></clipPath></defs><title>home_menu</title><g class="cls-3"><g class="cls-4"><g class="cls-5"><path class="cls-6" d="M1,28A26,26,0,0,1,27,2H321a26,26,0,0,1,26,26v75a26,26,0,0,1-26,26H27A26,26,0,0,1,1,103Z"/></g></g><g class="cls-4"><g class="cls-5"><path class="cls-7" d="M1,28A26,26,0,0,1,27,2H321a26,26,0,0,1,26,26v75a26,26,0,0,1-26,26H27A26,26,0,0,1,1,103Z"/></g><path class="cls-8" d="M100.9,23.2l5.3,7v-7h1.6V33h-1.6L101,26v7H99.3V23.2Z"/><path class="cls-8" d="M116.8,29.9h-5.6a2.35,2.35,0,0,0,2.3,1.9,2.72,2.72,0,0,0,2.1-.9l.9.9a4.06,4.06,0,0,1-3.1,1.3,3.57,3.57,0,0,1-3.8-3.8,3.62,3.62,0,0,1,3.8-3.8C116,25.5,117,27.2,116.8,29.9Zm-1.4-1.2a2,2,0,0,0-2.1-1.9,2.1,2.1,0,0,0-2.2,1.9Z"/><path class="cls-8" d="M119.5,25.5l1.7,2.5,1.7-2.5h1.8l-2.4,3.6,2.6,3.8H123l-1.8-2.7-1.9,2.7h-1.8l2.6-3.8-2.5-3.6Z"/><path class="cls-8" d="M130.5,32.5a3.09,3.09,0,0,1-1.8.5,2,2,0,0,1-2.1-2.2V27h-1.1V25.8h1.1v-2h1.6v2h2.2V27h-2.2v3.6c0,.8.3,1,.8,1a2.61,2.61,0,0,0,1.1-.3Z"/><path class="cls-8" d="M140,24.6a3.4,3.4,0,0,0-3.5,3.4,3.48,3.48,0,0,0,3.5,3.5,3.57,3.57,0,0,0,2.7-1.2l1,1.1a5.46,5.46,0,0,1-3.8,1.6,5,5,0,1,1,.1-9.9,5.39,5.39,0,0,1,3.7,1.5l-1,1.2A3.78,3.78,0,0,0,140,24.6Z"/><path class="cls-8" d="M152.4,29.3a3.7,3.7,0,0,1-3.9,3.8,3.65,3.65,0,0,1-3.9-3.8,3.9,3.9,0,0,1,7.8,0Zm-6.2,0a2.23,2.23,0,0,0,2.3,2.4,2.29,2.29,0,0,0,2.3-2.4,2.23,2.23,0,0,0-2.3-2.4A2.29,2.29,0,0,0,146.2,29.3Z"/><path class="cls-8" d="M166.5,28.4V33h-1.6V28.8a1.68,1.68,0,0,0-1.8-1.8,2,2,0,0,0-2,2.3V33h-1.6V28.8a1.68,1.68,0,0,0-1.8-1.8,2.1,2.1,0,0,0-2.1,2.3V33H154V25.5h1.6V27a2.69,2.69,0,0,1,2.7-1.5,2.62,2.62,0,0,1,2.6,1.8,2.83,2.83,0,0,1,2.8-1.8A2.61,2.61,0,0,1,166.5,28.4Z"/><path class="cls-8" d="M181.1,28.4V33h-1.6V28.8a1.68,1.68,0,0,0-1.8-1.8,2,2,0,0,0-2,2.3V33h-1.6V28.8a1.68,1.68,0,0,0-1.8-1.8,2.1,2.1,0,0,0-2.1,2.3V33h-1.6V25.5h1.6V27a2.69,2.69,0,0,1,2.7-1.5,2.62,2.62,0,0,1,2.6,1.8,2.83,2.83,0,0,1,2.8-1.8A2.61,2.61,0,0,1,181.1,28.4Z"/><path class="cls-8" d="M190.1,25.5V33h-1.6V31.5a2.75,2.75,0,0,1-2.7,1.5,2.58,2.58,0,0,1-2.7-2.9V25.5h1.6v4.2a1.66,1.66,0,0,0,1.7,1.8,2,2,0,0,0,2-2.3V25.5Z"/><path class="cls-8" d="M196.6,32.5a3.09,3.09,0,0,1-1.8.5,2,2,0,0,1-2.1-2.2V27h-1.1V25.8h1.1v-2h1.6v2h2.2V27h-2.2v3.6c0,.8.3,1,.8,1a2.61,2.61,0,0,0,1.1-.3Z"/><path class="cls-8" d="M204.7,29.9h-5.6a2.35,2.35,0,0,0,2.3,1.9,2.72,2.72,0,0,0,2.1-.9l.9.9a4.06,4.06,0,0,1-3.1,1.3,3.57,3.57,0,0,1-3.8-3.8,3.62,3.62,0,0,1,3.8-3.8C203.8,25.5,204.9,27.2,204.7,29.9Zm-1.4-1.2a2,2,0,0,0-2.1-1.9,2.1,2.1,0,0,0-2.2,1.9Z"/><path class="cls-8" d="M121.7,96.4l6.8,9.1V96.4h2.1V109h-2.1l-6.7-9v9h-2.1V96.4Z"/><path class="cls-8" d="M142.9,96.4v1.9H136v3.4h6.2v1.9H136v3.5h7.1V109h-9.2V96.4Z"/><path class="cls-8" d="M147.1,96.4l3.1,4.4,3.1-4.4h2.5l-4.2,6,4.6,6.6h-2.5l-3.4-4.8-3.4,4.8h-2.5l4.6-6.5-4.3-6.1Z"/><path class="cls-8" d="M166.8,96.4v1.9h-4V109h-2.1V98.3h-4V96.4Z"/><path class="cls-8" d="M181.2,109l-2.3-3.8h-3.6V109h-2.1V96.4h5.1c3.2,0,5.1,1.6,5.1,4.3a4.08,4.08,0,0,1-2.6,4.1l2.8,4.2Zm-2.8-5.7c1.9,0,3.1-.8,3.1-2.5s-1.1-2.4-3.1-2.4h-3v5h3Z"/><path class="cls-8" d="M198.6,102.7a6.71,6.71,0,1,1-6.7-6.4A6.45,6.45,0,0,1,198.6,102.7Zm-11.2,0a4.5,4.5,0,0,0,9,0,4.5,4.5,0,0,0-9,0Z"/><path class="cls-8" d="M206.1,107.2a3.08,3.08,0,0,0,3.3-3.4V96.4h2.1v7.4c0,3.3-2.1,5.3-5.5,5.3s-5.5-2-5.5-5.3V96.4h2.1v7.4A3.28,3.28,0,0,0,206.1,107.2Z"/><path class="cls-8" d="M223.2,96.4v1.9h-4V109h-2.1V98.3h-4V96.4Z"/><path class="cls-8" d="M234,96.4v1.9h-6.9v3.4h6.2v1.9h-6.2v3.5h7.1V109H225V96.4Z"/><path class="cls-8" d="M104.3,57.8c3.2,0,4.8-2.4,4.7-6.1a4.81,4.81,0,0,1-4.6,2.4A5,5,0,0,1,99,48.7c0-3.5,2.3-5.6,5.9-5.6,4.2,0,6.8,3,6.8,8.2,0,5.4-2.8,8.9-7.2,8.9a10.63,10.63,0,0,1-5-1.3l1.1-2.1A7.57,7.57,0,0,0,104.3,57.8Zm-2.7-9.1c0,1.9,1.2,3.1,3.3,3.1a3.27,3.27,0,0,0,3.6-3.2c0-1.5-1-3.1-3.5-3.1A3.1,3.1,0,0,0,101.6,48.7Z"/><path class="cls-8" d="M116.9,51.5a1.5,1.5,0,1,1-1.5-1.6A1.5,1.5,0,0,1,116.9,51.5Zm0,7.1a1.5,1.5,0,1,1-1.5-1.6A1.5,1.5,0,0,1,116.9,58.6Z"/><path class="cls-8" d="M131.8,51.6c0,5.5-2.3,8.5-6.3,8.5s-6.3-3-6.3-8.5,2.3-8.5,6.3-8.5S131.8,46.1,131.8,51.6Zm-9.9,0c0,4.3,1.2,6.3,3.5,6.3s3.5-2,3.5-6.3-1.2-6.3-3.5-6.3S121.9,47.3,121.9,51.6Z"/><path class="cls-8" d="M146.6,51.6c0,5.5-2.3,8.5-6.3,8.5s-6.3-3-6.3-8.5,2.3-8.5,6.3-8.5S146.6,46.1,146.6,51.6Zm-9.9,0c0,4.3,1.2,6.3,3.5,6.3s3.5-2,3.5-6.3-1.2-6.3-3.5-6.3S136.7,47.3,136.7,51.6Z"/><path class="cls-8" d="M168,47.2V60h-2.7V57.8a4.86,4.86,0,0,1-4.5,2.3c-3.7,0-6.1-2.7-6.1-6.6s2.4-6.4,6-6.5a5.14,5.14,0,0,1,4.6,2.3V47.1H168Zm-2.7,6.9v-.9a3.8,3.8,0,0,0-3.9-3.7,3.92,3.92,0,0,0-3.9,4.2,3.92,3.92,0,0,0,3.9,4.2A4,4,0,0,0,165.3,54.1Z"/><path class="cls-8" d="M193.4,52.1V60h-2.8V52.8a2.86,2.86,0,0,0-3-3.1c-2.2.1-3.5,1.8-3.5,4V60h-2.8V52.8a2.81,2.81,0,0,0-3-3.1,3.75,3.75,0,0,0-3.6,4V60H172V47.2h2.7v2.5a4.72,4.72,0,0,1,4.6-2.6,4.18,4.18,0,0,1,4.4,3.1,4.7,4.7,0,0,1,4.8-3.1C191.7,47.1,193.4,49,193.4,52.1Z"/></g></g><rect class="cls-1" x="-14" y="-464" width="375" height="667"/><path class="cls-1" d="M36.7,51.6h-.5a4,4,0,0,1-4-4V43.4h8.2v4.2A4,4,0,0,1,36.7,51.6Zm-3.5-7.2v3.2a3,3,0,0,0,3,3h.3a3,3,0,0,0,3-3V44.4Z"/><path class="cls-1" d="M35.4,41.5a1.1,1.1,0,1,1,1.1,1.1,1,1,0,0,1-1.1-1.1"/><rect class="cls-1" x="25" y="17" width="48.8" height="48"/><line class="cls-9" x1="346" y1="82" x2="2.74" y2="82"/><rect class="cls-10" x="32.14" y="21.51" width="34.5" height="47.41" rx="2.37" ry="2.37" transform="translate(4.12 94.55) rotate(-89.94)"/><path class="cls-11" d="M70.87,63.15h-.16L28,63.1a3,3,0,0,1-3-3h0L25,30.3a3,3,0,0,1,3-3h0l42.68,0a3,3,0,0,1,3,3h0l0,29.79A3,3,0,0,1,70.87,63.15Zm-.16-1.33a1.7,1.7,0,0,0,1.7-1.7l0-29.77a1.7,1.7,0,0,0-1.69-1.7l-42.7,0a1.7,1.7,0,0,0-1.69,1.7l0,29.77A1.7,1.7,0,0,0,28,61.78l42.69,0Z"/><path class="cls-12" d="M44.24,21.26h9.29a.54.54,0,0,1,.54.54h0v5.88H43.7V21.79A.54.54,0,0,1,44.24,21.26Z"/><path class="cls-11" d="M34.09,62.94a2.32,2.32,0,0,0,4.6,0Z"/><path class="cls-11" d="M58.71,63a2.32,2.32,0,0,0,4.6,0Z"/><polygon class="cls-11" points="39.02 43.55 39 61.77 33.7 61.76 33.72 43.54 32.69 43.54 32.7 39.46 33.72 39.46 33.73 28.63 39.04 28.64 39.03 39.47 40.41 39.47 40.42 27.27 32.36 27.26 32.32 63.13 40.38 63.14 40.4 43.55 39.02 43.55"/><polygon class="cls-11" points="58.39 39.3 58.4 28.66 63.71 28.67 63.69 39.3 65.07 39.31 65.08 27.29 57.02 27.28 57.01 39.3 58.39 39.3"/><polygon class="cls-11" points="63.69 44.13 63.67 61.79 58.36 61.78 58.38 44.12 57.01 44.12 56.98 63.16 65.05 63.17 65.06 44.13 63.69 44.13"/><path class="cls-11" d="M36.7,51.58h-.49a4,4,0,0,1-4-4V43.38h8.2v4.24A4,4,0,0,1,36.7,51.58Zm-3.45-7.2v3.24a3,3,0,0,0,3,3h.27a3,3,0,0,0,3-3V44.39Z"/><circle class="cls-13" cx="36.53" cy="41.54" r="1.14" transform="translate(-5.05 78.02) rotate(-89.94)"/><path class="cls-13" d="M31.67,38.56v5.94h10V38.56Zm8.28,4.59H33.21V39.87h6.74Z"/><path class="cls-11" d="M61.37,51.75h-.49a4,4,0,0,1-4-4V43.55h8.2V47.8A4,4,0,0,1,61.37,51.75Zm-3.45-7.2v3.24a3,3,0,0,0,3,3h.26a3,3,0,0,0,3-3V44.56Z"/><path class="cls-13" d="M56.05,38.81v5.94H66V38.81Zm8.28,4.59H57.59V40.12h6.74Z"/><circle class="cls-13" cx="60.91" cy="41.78" r="1.14" transform="translate(19.07 102.65) rotate(-89.94)"/><path class="cls-10" d="M55.4,17.66h-13a2.11,2.11,0,0,0-2.11,2.11h0v7.91H57.51V19.77A2.11,2.11,0,0,0,55.4,17.66Zm-1.5,9.77H43.7V21.11h10.2Z"/><path class="cls-11" d="M58.17,28.34H39.59V19.77A2.77,2.77,0,0,1,42.37,17h13a2.77,2.77,0,0,1,2.78,2.77s0,0,0,0ZM54.55,27h2.29V19.77a1.45,1.45,0,0,0-1.44-1.45h-13a1.45,1.45,0,0,0-1.45,1.45V27H43V20.44H54.56Zm-10.19-.27h8.87v-5H44.36Z"/></svg>