<svg id="Layer_1" data-name="Layer 1" xmlns="http://www.w3.org/2000/svg" viewBox="0 0 30 30"><defs><style>.cls-1{fill:#d14a5b;}.cls-2{fill:#013e5b;}</style></defs><title>more_icon</title><circle class="cls-1" cx="5.3" cy="15" r="4.4"/><path class="cls-2" d="M15.45,19.4a4.35,4.35,0,1,1,4.35-4.35A4.35,4.35,0,0,1,15.45,19.4Zm0-6.6a2.25,2.25,0,1,0,2.25,2.25A2.25,2.25,0,0,0,15.45,12.8Z"/><path class="cls-2" d="M25.35,19.4a4.35,4.35,0,1,1,4.35-4.35A4.35,4.35,0,0,1,25.35,19.4Zm0-6.6a2.25,2.25,0,1,0,2.25,2.25A2.25,2.25,0,0,0,25.35,12.8Z"/></svg>