<svg id="Layer_1" data-name="Layer 1" xmlns="http://www.w3.org/2000/svg" viewBox="0 0 30 30"><defs><style>.cls-1{fill:#013e5b;}.cls-2{fill:#d14a5b;}</style></defs><title>rewards_icon</title><path class="cls-1" d="M24.25,4.09V2H6V4.09H.85V9.8a5.09,5.09,0,0,0,5.09,5.09h.9a9.13,9.13,0,0,0,6.71,5.22v2.74H12.3a1.61,1.61,0,0,0-1.61,1.61V25h-.13a1.23,1.23,0,0,0-1.22,1.22v2.45H21.43V26.25A1.23,1.23,0,0,0,20.27,25v-.58a1.61,1.61,0,0,0-1.61-1.61H17.23V20a9.14,9.14,0,0,0,6.2-5.11h1.05A5.09,5.09,0,0,0,29.57,9.8V4.09ZM6,13.39H5.94a3.6,3.6,0,0,1-3.6-3.6V5.58H6v7.82ZM18.67,24.33a.12.12,0,0,1,.12.12v2.07h1.16v.7H10.84v-.7h1.35V24.45a.12.12,0,0,1,.12-.12h6.36ZM15,22.84V20.6h.71v2.23Zm7.72-11.7a7.62,7.62,0,1,1-15.24,0V3.52H22.76ZM28.08,9.8a3.6,3.6,0,0,1-3.6,3.6H24.4V5.58h3.68Z"/><path class="cls-2" d="M15.4,6.48,16.6,8.93l2.7.39a.21.21,0,0,1,.12.35l-2,1.9.46,2.69a.21.21,0,0,1-.3.22l-2.41-1.27L12.8,14.48a.21.21,0,0,1-.3-.22l.44-2.58a.21.21,0,0,0-.06-.18L11,9.67a.21.21,0,0,1,.12-.35l2.7-.39L15,6.48A.21.21,0,0,1,15.4,6.48Z"/></svg>